<?xml version="1.0" encoding="utf-8"?>
<!-- Svg Vector Icons : http://www.onlinewebfonts.com/icon -->
<!DOCTYPE svg PUBLIC "-//W3C//DTD SVG 1.1//EN" "http://www.w3.org/Graphics/SVG/1.1/DTD/svg11.dtd">
<svg version="1.1" xmlns="http://www.w3.org/2000/svg" xmlns:xlink="http://www.w3.org/1999/xlink" x="0px" y="0px" viewBox="0 0 1000 1000" enable-background="new 0 0 1000 1000" xml:space="preserve">
<metadata> Svg Vector Icons : http://www.onlinewebfonts.com/icon </metadata>
<g><g transform="translate(0.000000,511.000000) scale(0.100000,-0.100000)"><path d="M8615.4,4344.3c-1376.7-101.6-2580.8-419.9-3662.2-966.4C2997.4,2388.6,1536.4,747.3,621.8-1486.4c-207.1-508.1-341.3-956.8-460.2-1549.3c-82.5-412.2-82.5-435.2,1.9-717.1c67.1-228.1,78.6-249.3,126.5-262.7c61.4-17.3,818.7-67.1,1413.1-95.9c680.7-30.7,3351.6-44.1,4026.5-19.2c690.3,24.9,1186.9,57.5,1229,78.6c21.1,13.5,34.5,74.8,53.7,243.5l23,226.2L6930-3321.4C6508.1-2286,6304.9-1338.8,6304.9-408.9c0,1349.8,435.2,2427.4,1351.7,3347.8c529.2,531.1,1190.7,964.4,2032.4,1332.6l210.9,92l-536.9-1.9C9067.9,4361.6,8732.3,4353.9,8615.4,4344.3z M9583.6,4307.9c0-17.3-49.8-34.5-268.4-84.4c-124.6-30.7-266.5-40.3-243.5-19.2c15.3,15.3,416.1,118.9,469.8,120.8C9564.5,4327.1,9583.6,4319.4,9583.6,4307.9z M8941.3,4279.1c0-9.6-65.2-24.9-143.8-32.6c-1244.4-124.6-2245.2-398.8-3221.2-880.1c-885.8-435.2-1568.4-931.9-2274-1648.9c-682.6-696-1206-1438-1673.9-2369.9c-389.2-778.5-765-1881-933.8-2732.3L662-3553.4h-59.4c-120.8,0-203.2,23-203.2,55.6c0,51.8,130.4,607.8,212.8,912.7c101.6,375.8,279.9,906.9,423.7,1265.5C1197-915,1549.8-205.6,1768.4,154.8c1265.5,2090,3196.3,3436,5667.8,3949.8C8116.8,4246.5,8941.3,4342.4,8941.3,4279.1z M8797.5,4077.8c-101.6-30.7-224.3-55.6-278-55.6h-95.9l172.6,55.6c99.7,30.7,216.7,53.7,278,55.6h105.5L8797.5,4077.8z M8970.1,4022.2c0-9.6-122.7-90.1-272.3-180.2c-510-303-874.3-582.9-1263.5-970.2c-293.4-295.3-456.4-492.8-657.7-797.6c-391.1-590.6-623.1-1186.9-734.3-1888.6c-47.9-302.9-46-1071.8,1.9-1428.5c92-676.8,291.4-1461,554.1-2182l67.1-186l-42.2-11.5c-23-5.8-88.2-7.7-145.7-3.8l-101.6,5.7l-86.3,249.3C5741.2-1751,5641.5-353.3,5992.4,847c301,1033.5,1022,1948.1,2124.5,2692c266.5,180.2,642.3,408.4,767,464C8973.9,4045.2,8970.1,4043.3,8970.1,4022.2z M8049.7,3836.2c-130.4-47.9-207.1-65.2-268.4-61.3l-86.3,5.7l172.6,61.4c103.6,36.4,210.9,61.3,268.4,61.3h95.9L8049.7,3836.2z M7474.5,3615.7c-94-44.1-145.7-55.6-218.6-51.8l-95.9,5.7l122.7,51.8c80.5,32.6,159.1,51.8,220.5,51.8h95.9L7474.5,3615.7z M6956.8,3378c-101.6-53.7-145.7-65.2-239.7-65.2l-115,1.9l134.2,63.3c103.5,49.9,159.1,65.2,239.7,65.2h105.4L6956.8,3378z M6535,3169c0-3.8-55.6-40.3-124.6-78.6c-109.3-61.4-138.1-69-235.8-63.3l-109.3,5.8l124.6,70.9c101.6,57.5,143.8,70.9,235.8,70.9C6485.1,3176.6,6535,3172.8,6535,3169z M6046.1,2873.7c-11.5-9.6-63.3-47.9-118.9-88.2c-94-67.1-105.5-70.9-230.1-65.2l-130.4,5.7l124.6,80.5c113.1,72.9,136.1,80.5,249.3,80.5C6007.7,2889,6055.6,2881.4,6046.1,2873.7z M5490,2457.6c-94-84.4-97.8-86.3-233.9-86.3c-76.7,0-140,3.8-140,7.7c0,3.8,44.1,44.1,97.8,86.3c95.9,74.8,103.5,78.6,235.8,78.6l136.1-1.9L5490,2457.6z M5001.1,1997.5l-122.7-124.6h-163h-163l122.7,124.6l122.7,124.6h163h163L5001.1,1997.5z M4567.7,1475.9c-17.3-30.7-72.9-111.2-118.9-182.2l-86.3-130.4h-187.9c-105.5,0-189.8,5.8-189.8,11.5c0,7.7,57.5,90.1,126.5,182.2l126.5,170.6h182.2h182.2L4567.7,1475.9z M4099.9,670.6c0-9.6-47.9-132.3-105.5-274.2L3889,137.6l-230.1-5.7c-126.5-1.9-230.1-1.9-230.1,3.8c0,15.3,205.2,464,232,506.2c24.9,38.3,42.2,42.2,232,42.2C4007.9,684,4099.9,678.3,4099.9,670.6z M3697.3-577.6c0-7.7-17.3-109.3-38.3-224.3c-21.1-117-53.7-335.5-72.9-488.9l-34.5-278l-272.3-5.7l-272.3-5.8v46c0,90.1,111.2,663.4,174.5,901.2l19.2,70.9H3448C3586-562.3,3697.3-569.9,3697.3-577.6z M3505.5-3035.7v-653.8l-301,5.8l-302.9,5.7l3.8,621.2c1.9,343.2,7.7,632.7,13.4,648.1c7.7,19.2,76.7,24.9,299.1,24.9h287.6V-3035.7z"/></g></g>
</svg>