<?xml version="1.0" standalone="no"?>
<!DOCTYPE svg PUBLIC "-//W3C//DTD SVG 1.1//EN" "http://www.w3.org/Graphics/SVG/1.1/DTD/svg11.dtd">
<!--Generator: Xara Designer (www.xara.com), SVG filter version: 6.6.0.0-->
<svg fill="none" fill-rule="evenodd" stroke="black" stroke-width="0.501" stroke-linejoin="bevel" stroke-miterlimit="10" font-family="Times New Roman" font-size="16" style="font-variant-ligatures:none" xmlns:xlink="http://www.w3.org/1999/xlink" xmlns="http://www.w3.org/2000/svg" version="1.1" overflow="visible" width="383.997pt" height="383.994pt" viewBox="-548.315 -556.384 383.997 383.994">
 <defs>
	</defs>
 <g id="Layer 1" transform="scale(1 -1)">
  <rect x="-191.997" y="-191.997" width="383.994" height="383.995" transform="translate(-356.316 364.388) rotate(90)" stroke="none" stroke-width="0.017" stroke-linejoin="miter"/>
  <g id="Group" letter-spacing="-0.06em" font-weight="bold" font-family="Open Sans" stroke="none">
   <path d="M -175.253,247.008 L -249.671,376.962 C -250.449,378.324 -251.719,380.539 -252.498,381.902 L -326.915,511.853 C -343.143,540.192 -369.487,540.192 -385.715,511.853 L -460.135,381.902 C -460.913,380.539 -462.183,378.324 -462.962,376.962 L -537.379,247.01 C -553.607,218.672 -540.437,195.669 -507.979,195.669 L -359.146,195.667 C -357.587,195.667 -355.048,195.667 -353.488,195.667 L -204.653,195.667 C -172.196,195.667 -159.026,218.669 -175.253,247.008 Z" fill="#e9cf1a" stroke-width="0.03" stroke-linejoin="miter" marker-start="none" marker-end="none"/>
   <path d="M -312.007,419.538 C -346.771,416.951 -377.179,408.846 -404.488,394.935 C -453.881,369.743 -490.776,327.954 -513.873,271.084 C -519.103,258.146 -522.492,246.721 -525.495,231.635 C -527.577,221.14 -527.577,220.555 -525.446,213.377 C -523.752,207.571 -523.461,207.03 -522.252,206.69 C -520.702,206.248 -501.576,204.98 -486.565,204.248 C -469.374,203.467 -401.925,203.125 -384.88,203.758 C -367.452,204.392 -354.908,205.223 -353.845,205.759 C -353.313,206.102 -352.974,207.665 -352.49,211.958 L -351.909,217.72 L -354.569,224.363 C -365.221,250.723 -370.353,274.84 -370.353,298.516 C -370.353,332.883 -359.363,360.32 -336.217,383.755 C -322.854,397.278 -306.15,408.31 -284.892,417.686 L -279.567,420.026 L -293.126,419.977 C -300.577,419.977 -309.054,419.782 -312.007,419.538 Z M -287.555,418.613 C -287.555,418.171 -288.813,417.734 -294.333,416.461 C -297.478,415.681 -301.062,415.437 -300.482,415.973 C -300.095,416.363 -289.974,419.002 -288.617,419.049 C -288.035,419.099 -287.555,418.904 -287.555,418.613 Z M -303.775,417.877 C -303.775,417.633 -305.42,417.245 -307.407,417.047 C -338.831,413.877 -364.106,406.894 -388.753,394.638 C -411.123,383.558 -428.36,370.912 -446.179,352.658 C -463.419,334.936 -476.636,316.043 -488.454,292.319 C -498.282,272.496 -507.772,244.425 -512.035,222.749 L -512.858,218.454 L -514.357,218.454 C -517.409,218.454 -519.489,219.039 -519.489,219.871 C -519.489,221.19 -516.196,235.346 -514.116,243.109 C -511.55,252.678 -507.046,266.198 -503.416,275.328 C -499.347,285.632 -490.438,303.693 -484.917,312.87 C -452.959,366.084 -404.198,400.353 -341.784,413.435 C -324.596,417.047 -303.775,419.491 -303.775,417.877 Z M -307.407,412.751 C -309.972,411.97 -313.071,411.336 -314.426,411.336 L -316.849,411.336 L -312.491,412.751 C -309.972,413.535 -307.015,414.121 -305.468,414.169 L -302.804,414.169 L -307.407,412.751 Z M -303.048,411.336 C -303.048,411.092 -306.145,409.044 -309.924,406.749 C -322.804,399.033 -332.004,391.907 -341.833,382.045 C -349.244,374.527 -353.358,369.499 -358.442,361.739 C -368.318,346.703 -374.177,331.519 -376.984,313.655 C -378.196,305.942 -378.146,286.364 -376.936,277.283 C -374.614,260.049 -369.578,240.083 -362.943,221.727 L -361.25,216.991 L -362.314,216.699 C -362.895,216.551 -364.543,216.502 -365.994,216.6 L -368.561,216.746 L -370.741,223.093 C -384.589,264.345 -387.107,299.932 -378.246,330.492 C -370.644,356.807 -352.436,380.095 -324.593,399.033 C -317.863,403.622 -308.375,409.434 -305.223,410.847 C -302.952,411.923 -303.048,411.873 -303.048,411.336 Z M -326.291,406.6 C -329.584,405.381 -331.52,404.942 -333.069,405.041 L -335.249,405.187 L -330.891,406.749 C -328.273,407.676 -325.565,408.31 -324.11,408.31 L -321.69,408.31 L -326.291,406.6 Z M -340.818,400.987 C -343.19,399.864 -344.498,399.573 -346.338,399.669 L -348.76,399.813 L -345.661,401.134 C -343.628,401.962 -341.642,402.45 -340.092,402.45 L -337.67,402.45 L -340.818,400.987 Z M -353.891,394.935 C -356.456,393.568 -357.572,393.275 -359.943,393.275 L -362.849,393.322 L -359.46,394.935 C -356.843,396.206 -355.441,396.594 -353.405,396.594 L -350.745,396.594 L -353.891,394.935 Z M -364.543,389.614 C -364.543,389.517 -365.946,388.587 -367.689,387.612 C -370.449,386.049 -371.176,385.856 -373.645,386 L -376.403,386.149 L -373.258,387.953 C -370.692,389.418 -369.628,389.76 -367.302,389.76 C -365.802,389.806 -364.543,389.711 -364.543,389.614 Z M -376.889,382.096 C -377.179,381.851 -378.487,380.875 -379.892,379.85 C -382.266,378.141 -382.555,378.043 -385.702,378.189 L -388.994,378.335 L -385.851,380.384 C -382.992,382.241 -382.413,382.435 -379.554,382.435 C -377.86,382.484 -376.65,382.29 -376.889,382.096 Z M -390.934,371.501 C -393.306,369.352 -393.403,369.302 -396.84,369.302 C -398.776,369.302 -400.377,369.4 -400.377,369.499 C -400.377,369.596 -399.26,370.623 -397.905,371.697 C -395.482,373.602 -395.292,373.699 -391.95,373.699 L -388.513,373.649 L -390.934,371.501 Z M -403.278,359.785 L -406.379,356.615 L -410.495,356.615 L -414.611,356.615 L -411.512,359.785 L -408.413,362.959 L -404.295,362.959 L -400.18,362.959 L -403.278,359.785 Z M -414.226,346.504 C -414.662,345.724 -416.064,343.674 -417.227,341.866 L -419.406,338.548 L -424.152,338.548 C -426.817,338.548 -428.945,338.695 -428.945,338.841 C -428.945,339.036 -427.493,341.134 -425.749,343.479 L -422.556,347.82 L -417.956,347.82 L -413.352,347.82 L -414.226,346.504 Z M -426.038,326.002 C -426.038,325.757 -427.248,322.633 -428.702,319.021 L -431.364,312.432 L -437.174,312.284 C -440.369,312.237 -442.986,312.237 -442.986,312.382 C -442.986,312.772 -437.804,324.198 -437.128,325.271 C -436.498,326.246 -436.06,326.344 -431.267,326.344 C -428.36,326.342 -426.038,326.198 -426.038,326.002 Z M -436.205,294.221 C -436.205,294.025 -436.641,291.439 -437.171,288.509 C -437.705,285.532 -438.527,279.97 -439.014,276.062 L -439.885,268.983 L -446.761,268.84 L -453.637,268.691 L -453.637,269.862 C -453.637,272.157 -450.829,286.754 -449.231,292.808 L -448.746,294.614 L -442.502,294.614 C -439.016,294.611 -436.205,294.417 -436.205,294.221 Z M -441.049,231.635 L -441.049,214.991 L -448.65,215.138 L -456.298,215.283 L -456.202,231.099 C -456.155,239.838 -456.009,247.207 -455.864,247.599 C -455.67,248.089 -453.929,248.233 -448.312,248.233 L -441.049,248.233 L -441.049,231.635 Z" fill="#000000" stroke-width="0.026" fill-rule="nonzero" stroke-linejoin="miter" marker-start="none" marker-end="none"/>
   <text xml:space="preserve" transform="translate(-352.951 225.958) scale(1 -1)" kerning="auto" stroke-width="0.439" stroke-linecap="round" stroke-linejoin="round" fill="#000000"><tspan x="0" y="0" font-size="145.081">Н</tspan><tspan x="102.799" y="0" font-size="30.899">орд</tspan></text>
  </g>
 </g>
</svg>
