<?xml version="1.0" standalone="no"?>
<!DOCTYPE svg PUBLIC "-//W3C//DTD SVG 1.1//EN" "http://www.w3.org/Graphics/SVG/1.1/DTD/svg11.dtd">
<!--Generator: Xara Designer (www.xara.com), SVG filter version: 6.6.0.0-->
<svg fill="none" fill-rule="evenodd" stroke="black" stroke-width="0.501" stroke-linejoin="bevel" stroke-miterlimit="10" font-family="Times New Roman" font-size="16" style="font-variant-ligatures:none" xmlns:xlink="http://www.w3.org/1999/xlink" xmlns="http://www.w3.org/2000/svg" version="1.1" overflow="visible" width="313.432pt" height="278.982pt" viewBox="20.554 -443.292 313.432 278.982">
 <defs>
	</defs>
 <g id="Layer 1" transform="scale(1 -1)">
  <path d="M 328.195,206.756 L 266.164,314.197 C 265.515,315.323 264.457,317.154 263.808,318.281 L 201.777,425.72 C 188.25,449.149 166.291,449.149 152.764,425.72 L 90.732,318.281 C 90.083,317.154 89.024,315.323 88.375,314.197 L 26.345,206.758 C 12.818,183.329 23.796,164.312 50.851,164.312 L 174.911,164.31 C 176.21,164.31 178.327,164.31 179.627,164.31 L 303.688,164.31 C 330.743,164.31 341.721,183.327 328.195,206.756 Z" fill="#e9cf1a" stroke="none" stroke-width="0.025" stroke-linejoin="miter" marker-start="none" marker-end="none"/>
  <path d="M 214.204,349.397 C 185.226,347.258 159.879,340.558 137.116,329.056 C 95.945,308.229 65.191,273.679 45.938,226.662 C 41.579,215.965 38.754,206.519 36.251,194.047 C 34.515,185.37 34.515,184.886 36.291,178.952 C 37.704,174.151 37.946,173.704 38.954,173.423 C 40.246,173.058 56.189,172.009 68.701,171.404 C 83.03,170.758 139.252,170.476 153.46,170.999 C 167.988,171.523 178.443,172.21 179.329,172.653 C 179.773,172.937 180.055,174.229 180.459,177.778 L 180.943,182.542 L 178.726,188.034 C 169.847,209.828 165.569,229.767 165.569,249.341 C 165.569,277.754 174.73,300.438 194.023,319.813 C 205.162,330.993 219.086,340.114 236.805,347.866 L 241.244,349.801 L 229.942,349.76 C 223.731,349.76 216.665,349.599 214.204,349.397 Z M 234.585,348.632 C 234.585,348.267 233.537,347.905 228.936,346.853 C 226.314,346.208 223.327,346.007 223.81,346.45 C 224.133,346.772 232.569,348.954 233.7,348.993 C 234.185,349.034 234.585,348.873 234.585,348.632 Z M 221.065,348.024 C 221.065,347.822 219.694,347.501 218.038,347.338 C 191.844,344.717 170.776,338.944 150.232,328.811 C 131.585,319.65 117.218,309.195 102.364,294.104 C 87.994,279.452 76.977,263.832 67.126,244.217 C 58.934,227.829 51.024,204.621 47.47,186.7 L 46.784,183.149 L 45.535,183.149 C 42.991,183.149 41.257,183.633 41.257,184.321 C 41.257,185.411 44.002,197.115 45.736,203.533 C 47.874,211.444 51.629,222.622 54.655,230.17 C 58.046,238.689 65.473,253.621 70.074,261.208 C 96.713,305.203 137.358,333.536 189.383,344.351 C 203.71,347.338 221.065,349.358 221.065,348.024 Z M 218.038,343.786 C 215.9,343.14 213.317,342.616 212.187,342.616 L 210.167,342.616 L 213.8,343.786 C 215.9,344.434 218.364,344.919 219.654,344.958 L 221.874,344.958 L 218.038,343.786 Z M 221.671,342.616 C 221.671,342.414 219.09,340.721 215.94,338.824 C 205.204,332.444 197.535,326.553 189.342,318.4 C 183.165,312.184 179.735,308.027 175.498,301.611 C 167.265,289.18 162.382,276.626 160.042,261.857 C 159.032,255.48 159.073,239.294 160.082,231.786 C 162.018,217.538 166.215,201.031 171.746,185.855 L 173.157,181.94 L 172.27,181.698 C 171.786,181.576 170.412,181.535 169.203,181.616 L 167.063,181.737 L 165.246,186.984 C 153.703,221.09 151.604,250.512 158.99,275.778 C 165.327,297.534 180.504,316.787 203.712,332.444 C 209.322,336.238 217.231,341.043 219.858,342.212 C 221.751,343.101 221.671,343.06 221.671,342.616 Z M 202.297,338.701 C 199.552,337.693 197.938,337.33 196.647,337.411 L 194.83,337.532 L 198.463,338.824 C 200.645,339.59 202.902,340.114 204.115,340.114 L 206.132,340.114 L 202.297,338.701 Z M 190.188,334.06 C 188.211,333.132 187.121,332.891 185.587,332.97 L 183.568,333.089 L 186.151,334.181 C 187.846,334.866 189.501,335.27 190.793,335.27 L 192.812,335.27 L 190.188,334.06 Z M 179.291,329.056 C 177.153,327.926 176.223,327.684 174.246,327.684 L 171.824,327.723 L 174.649,329.056 C 176.83,330.107 177.999,330.428 179.696,330.428 L 181.914,330.428 L 179.291,329.056 Z M 170.412,324.657 C 170.412,324.577 169.242,323.808 167.79,323.002 C 165.489,321.71 164.883,321.55 162.825,321.669 L 160.526,321.792 L 163.148,323.284 C 165.287,324.495 166.174,324.778 168.112,324.778 C 169.363,324.816 170.412,324.737 170.412,324.657 Z M 160.121,318.441 C 159.879,318.239 158.789,317.432 157.618,316.585 C 155.639,315.172 155.398,315.091 152.775,315.211 L 150.031,315.332 L 152.651,317.026 C 155.034,318.561 155.517,318.722 157.9,318.722 C 159.312,318.762 160.321,318.602 160.121,318.441 Z M 148.414,309.682 C 146.437,307.905 146.356,307.864 143.491,307.864 C 141.877,307.864 140.543,307.945 140.543,308.027 C 140.543,308.107 141.474,308.956 142.603,309.844 C 144.623,311.419 144.781,311.499 147.567,311.499 L 150.432,311.458 L 148.414,309.682 Z M 138.124,299.996 L 135.54,297.375 L 132.109,297.375 L 128.678,297.375 L 131.261,299.996 L 133.844,302.62 L 137.277,302.62 L 140.707,302.62 L 138.124,299.996 Z M 128.999,289.016 C 128.636,288.371 127.467,286.676 126.498,285.181 L 124.681,282.438 L 120.725,282.438 C 118.504,282.438 116.73,282.56 116.73,282.68 C 116.73,282.841 117.94,284.576 119.394,286.515 L 122.055,290.104 L 125.89,290.104 L 129.727,290.104 L 128.999,289.016 Z M 119.153,272.065 C 119.153,271.863 118.145,269.28 116.932,266.294 L 114.714,260.846 L 109.871,260.724 C 107.207,260.685 105.026,260.685 105.026,260.805 C 105.026,261.127 109.346,270.574 109.909,271.461 C 110.434,272.267 110.799,272.348 114.794,272.348 C 117.218,272.347 119.153,272.227 119.153,272.065 Z M 110.678,245.79 C 110.678,245.628 110.315,243.49 109.873,241.068 C 109.428,238.607 108.743,234.008 108.337,230.777 L 107.611,224.925 L 101.88,224.806 L 96.148,224.683 L 96.148,225.651 C 96.148,227.549 98.489,239.617 99.82,244.622 L 100.225,246.115 L 105.43,246.115 C 108.335,246.112 110.678,245.952 110.678,245.79 Z M 106.641,194.047 L 106.641,180.286 L 100.305,180.408 L 93.93,180.527 L 94.01,193.603 C 94.049,200.828 94.171,206.921 94.292,207.245 C 94.453,207.65 95.905,207.769 100.587,207.769 L 106.641,207.769 L 106.641,194.047 Z" stroke="none" fill="#000000" stroke-width="0.022" fill-rule="nonzero" stroke-linejoin="miter" marker-start="none" marker-end="none"/>
  <text xml:space="preserve" transform="translate(179.182 194.725) scale(1 -1)" kerning="auto" font-weight="bold" letter-spacing="-0.06em" stroke="none" stroke-width="0.991" stroke-linecap="round" stroke-linejoin="round" font-family="Open Sans" fill="#000000"><tspan x="0" y="0" font-size="121.169">Н</tspan><tspan x="85.856" y="0" font-size="25.806">орд</tspan></text>
 </g>
</svg>
