<?xml version="1.0" standalone="no"?>
<!DOCTYPE svg PUBLIC "-//W3C//DTD SVG 1.1//EN" "http://www.w3.org/Graphics/SVG/1.1/DTD/svg11.dtd">
<!--Generator: Xara Designer (www.xara.com), SVG filter version: 6.6.0.0-->
<svg fill="none" fill-rule="evenodd" stroke="black" stroke-width="0.501" stroke-linejoin="bevel" stroke-miterlimit="10" font-family="Times New Roman" font-size="16" style="font-variant-ligatures:none" xmlns:xlink="http://www.w3.org/1999/xlink" xmlns="http://www.w3.org/2000/svg" version="1.1" overflow="visible" width="143.998pt" height="143.998pt" viewBox="-428.316 -436.386 143.998 143.998">
 <defs>
	</defs>
 <g id="Layer 1" transform="scale(1 -1)">
  <rect x="-71.999" y="-71.999" width="143.998" height="143.999" transform="translate(-356.317 364.387) rotate(90)" stroke="none" stroke-width="0.006" stroke-linejoin="miter"/>
  <g id="Group" letter-spacing="-0.06em" font-weight="bold" font-family="Open Sans" stroke="none">
   <path d="M -288.418,320.37 L -316.325,369.102 C -316.617,369.614 -317.093,370.444 -317.385,370.955 L -345.291,419.687 C -351.377,430.314 -361.256,430.314 -367.341,419.687 L -395.249,370.955 C -395.541,370.444 -396.017,369.614 -396.309,369.102 L -424.215,320.371 C -430.301,309.744 -425.362,301.118 -413.19,301.118 L -357.378,301.117 C -356.793,301.117 -355.841,301.117 -355.256,301.117 L -299.443,301.117 C -287.272,301.117 -282.333,309.743 -288.418,320.37 Z" fill="#e9cf1a" stroke-width="0.011" stroke-linejoin="miter" marker-start="none" marker-end="none"/>
   <path d="M -339.701,385.069 C -352.737,384.099 -364.14,381.059 -374.381,375.843 C -392.903,366.396 -406.739,350.725 -415.4,329.398 C -417.362,324.547 -418.633,320.262 -419.759,314.605 C -420.539,310.669 -420.539,310.45 -419.74,307.758 C -419.105,305.581 -418.996,305.378 -418.543,305.251 C -417.961,305.085 -410.789,304.609 -405.16,304.335 C -398.713,304.042 -373.42,303.914 -367.028,304.151 C -360.493,304.389 -355.789,304.701 -355.39,304.902 C -355.19,305.03 -355.063,305.616 -354.882,307.226 L -354.664,309.387 L -355.661,311.878 C -359.656,321.763 -361.58,330.807 -361.58,339.685 C -361.58,352.573 -357.459,362.862 -348.779,371.65 C -343.768,376.721 -337.504,380.858 -329.533,384.374 L -327.536,385.252 L -332.62,385.233 C -335.414,385.233 -338.593,385.16 -339.701,385.069 Z M -330.531,384.722 C -330.531,384.556 -331.003,384.392 -333.073,383.915 C -334.252,383.622 -335.596,383.531 -335.379,383.732 C -335.234,383.878 -331.438,384.868 -330.929,384.885 C -330.711,384.904 -330.531,384.831 -330.531,384.722 Z M -336.614,384.446 C -336.614,384.354 -337.231,384.209 -337.976,384.135 C -349.76,382.946 -359.238,380.327 -368.48,375.731 C -376.869,371.576 -383.333,366.834 -390.015,359.989 C -396.48,353.343 -401.437,346.258 -405.868,337.362 C -409.554,329.928 -413.113,319.401 -414.711,311.273 L -415.02,309.662 L -415.582,309.662 C -416.726,309.662 -417.506,309.882 -417.506,310.194 C -417.506,310.688 -416.272,315.997 -415.492,318.908 C -414.529,322.496 -412.84,327.566 -411.479,330.99 C -409.953,334.854 -406.612,341.627 -404.542,345.068 C -392.558,365.023 -374.272,377.874 -350.867,382.78 C -344.422,384.135 -336.614,385.051 -336.614,384.446 Z M -337.976,382.524 C -338.938,382.231 -340.1,381.993 -340.608,381.993 L -341.516,381.993 L -339.882,382.524 C -338.938,382.818 -337.829,383.037 -337.249,383.055 L -336.25,383.055 L -337.976,382.524 Z M -336.341,381.993 C -336.341,381.901 -337.502,381.133 -338.92,380.273 C -343.75,377.379 -347.2,374.707 -350.885,371.009 C -353.665,368.19 -355.207,366.304 -357.114,363.394 C -360.817,357.756 -363.014,352.062 -364.067,345.363 C -364.522,342.47 -364.503,335.128 -364.049,331.723 C -363.178,325.26 -361.29,317.773 -358.802,310.89 L -358.167,309.114 L -358.566,309.004 C -358.784,308.949 -359.402,308.93 -359.946,308.967 L -360.908,309.022 L -361.726,311.402 C -366.919,326.871 -367.863,340.216 -364.54,351.676 C -361.69,361.545 -354.862,370.278 -344.42,377.379 C -341.897,379.1 -338.339,381.28 -337.157,381.81 C -336.305,382.213 -336.341,382.194 -336.341,381.993 Z M -345.057,380.217 C -346.292,379.76 -347.018,379.595 -347.599,379.632 L -348.416,379.687 L -346.782,380.273 C -345.8,380.62 -344.785,380.858 -344.239,380.858 L -343.332,380.858 L -345.057,380.217 Z M -350.505,378.112 C -351.394,377.691 -351.885,377.582 -352.575,377.618 L -353.483,377.672 L -352.321,378.167 C -351.559,378.478 -350.814,378.661 -350.233,378.661 L -349.324,378.661 L -350.505,378.112 Z M -355.407,375.843 C -356.369,375.33 -356.788,375.22 -357.677,375.22 L -358.766,375.238 L -357.496,375.843 C -356.514,376.319 -355.988,376.465 -355.225,376.465 L -354.227,376.465 L -355.407,375.843 Z M -359.402,373.847 C -359.402,373.811 -359.928,373.462 -360.581,373.096 C -361.616,372.51 -361.889,372.438 -362.815,372.492 L -363.849,372.548 L -362.67,373.224 C -361.708,373.774 -361.309,373.902 -360.436,373.902 C -359.874,373.919 -359.402,373.884 -359.402,373.847 Z M -364.031,371.028 C -364.14,370.936 -364.631,370.57 -365.158,370.186 C -366.048,369.545 -366.156,369.508 -367.336,369.563 L -368.571,369.618 L -367.392,370.386 C -366.32,371.082 -366.103,371.155 -365.031,371.155 C -364.396,371.173 -363.942,371.101 -364.031,371.028 Z M -369.298,367.055 C -370.188,366.249 -370.224,366.23 -371.513,366.23 C -372.239,366.23 -372.839,366.267 -372.839,366.304 C -372.839,366.34 -372.421,366.726 -371.912,367.128 C -371.004,367.843 -370.933,367.879 -369.679,367.879 L -368.39,367.86 L -369.298,367.055 Z M -373.927,362.661 L -375.09,361.473 L -376.634,361.473 L -378.177,361.473 L -377.015,362.661 L -375.853,363.852 L -374.309,363.852 L -372.766,363.852 L -373.927,362.661 Z M -378.033,357.681 C -378.196,357.388 -378.722,356.62 -379.158,355.942 L -379.975,354.697 L -381.755,354.697 C -382.754,354.697 -383.552,354.753 -383.552,354.807 C -383.552,354.88 -383.008,355.667 -382.354,356.547 L -381.157,358.174 L -379.432,358.174 L -377.705,358.174 L -378.033,357.681 Z M -382.462,349.993 C -382.462,349.901 -382.916,348.729 -383.461,347.375 L -384.46,344.904 L -386.638,344.848 C -387.836,344.831 -388.818,344.831 -388.818,344.885 C -388.818,345.031 -386.875,349.316 -386.621,349.719 C -386.385,350.084 -386.221,350.121 -384.423,350.121 C -383.333,350.12 -382.462,350.066 -382.462,349.993 Z M -386.275,338.075 C -386.275,338.001 -386.438,337.032 -386.637,335.933 C -386.837,334.816 -387.146,332.731 -387.328,331.265 L -387.655,328.611 L -390.233,328.557 L -392.812,328.501 L -392.812,328.94 C -392.812,329.801 -391.759,335.275 -391.16,337.545 L -390.978,338.222 L -388.636,338.222 C -387.329,338.221 -386.275,338.148 -386.275,338.075 Z M -388.091,314.605 L -388.091,308.364 L -390.942,308.419 L -393.81,308.473 L -393.774,314.404 C -393.756,317.681 -393.701,320.445 -393.647,320.592 C -393.574,320.775 -392.921,320.829 -390.815,320.829 L -388.091,320.829 L -388.091,314.605 Z" fill="#000000" stroke-width="0.01" fill-rule="nonzero" stroke-linejoin="miter" marker-start="none" marker-end="none"/>
   <text xml:space="preserve" transform="translate(-355.054 312.476) scale(1 -1)" kerning="auto" stroke-width="0.165" stroke-linecap="round" stroke-linejoin="round" fill="#000000"><tspan x="0" y="0" font-size="54.405">Н</tspan><tspan x="38.549" y="0" font-size="11.587">орд</tspan></text>
  </g>
 </g>
</svg>
