<?xml version="1.0" standalone="no"?>
<!DOCTYPE svg PUBLIC "-//W3C//DTD SVG 1.1//EN" "http://www.w3.org/Graphics/SVG/1.1/DTD/svg11.dtd">
<!--Generator: Xara Designer (www.xara.com), SVG filter version: 6.6.0.0-->
<svg fill="none" fill-rule="evenodd" stroke="black" stroke-width="0.501" stroke-linejoin="bevel" stroke-miterlimit="10" font-family="Times New Roman" font-size="16" style="font-variant-ligatures:none" xmlns:xlink="http://www.w3.org/1999/xlink" xmlns="http://www.w3.org/2000/svg" version="1.1" overflow="visible" width="384.001pt" height="383.999pt" viewBox="0 -383.999 384.001 383.999">
 <defs>
	</defs>
 <g id="Layer 1" transform="scale(1 -1)">
  <rect x="-191.999" y="-192" width="383.998" height="384.001" transform="translate(192.001 192) rotate(90)" stroke="none" stroke-width="0.016" stroke-linejoin="miter"/>
  <g id="Group" font-weight="bold" font-family="Open Sans" stroke="none">
   <path d="M 377.053,70.245 L 302.634,200.2 C 301.856,201.563 300.586,203.778 299.808,205.141 L 225.389,335.094 C 209.161,363.433 182.816,363.433 166.588,335.094 L 92.167,205.141 C 91.389,203.778 90.119,201.563 89.341,200.2 L 14.922,70.247 C -1.306,41.908 11.865,18.906 44.322,18.906 L 193.157,18.904 C 194.717,18.904 197.256,18.904 198.815,18.904 L 347.653,18.904 C 380.11,18.904 393.281,41.906 377.053,70.245 Z" fill="#e9cf1a" stroke-width="0.029" stroke-linejoin="miter" marker-start="none" marker-end="none"/>
   <path d="M 240.297,242.778 C 205.534,240.192 175.125,232.085 147.815,218.175 C 98.423,192.983 61.526,151.193 38.43,94.32 C 33.198,81.384 29.809,69.957 26.806,54.872 C 24.726,44.376 24.726,43.792 26.856,36.613 C 28.55,30.808 28.84,30.266 30.049,29.928 C 31.601,29.485 50.726,28.215 65.737,27.485 C 82.929,26.703 150.378,26.362 167.424,26.994 C 184.851,27.629 197.395,28.461 198.459,28.997 C 198.992,29.338 199.331,30.901 199.813,35.194 L 200.395,40.957 L 197.736,47.6 C 187.083,73.96 181.952,98.078 181.952,121.753 C 181.952,156.121 192.941,183.559 216.088,206.994 C 229.451,220.517 246.155,231.549 267.412,240.925 L 272.737,243.266 L 259.18,243.216 C 251.729,243.216 243.251,243.021 240.297,242.778 Z M 264.75,241.853 C 264.75,241.41 263.492,240.973 257.972,239.701 C 254.828,238.92 251.243,238.677 251.822,239.213 C 252.209,239.602 262.332,242.242 263.689,242.288 C 264.27,242.338 264.75,242.144 264.75,241.853 Z M 248.529,241.117 C 248.529,240.872 246.883,240.485 244.897,240.288 C 213.472,237.117 188.197,230.133 163.552,217.877 C 141.181,206.797 123.943,194.151 106.124,175.897 C 88.884,158.175 75.665,139.281 63.849,115.558 C 54.019,95.734 44.529,67.661 40.267,45.986 L 39.443,41.69 L 37.945,41.69 C 34.894,41.69 32.814,42.277 32.814,43.109 C 32.814,44.426 36.105,58.584 38.185,66.347 C 40.753,75.915 45.257,89.435 48.886,98.566 C 52.955,108.87 61.865,126.931 67.385,136.108 C 99.343,189.322 148.106,223.591 210.52,236.674 C 227.707,240.288 248.529,242.73 248.529,241.117 Z M 244.897,235.992 C 242.331,235.21 239.233,234.576 237.878,234.576 L 235.457,234.576 L 239.814,235.992 C 242.331,236.776 245.289,237.36 246.835,237.408 L 249.499,237.408 L 244.897,235.992 Z M 249.257,234.576 C 249.257,234.33 246.161,232.282 242.379,229.989 C 229.499,222.271 220.299,215.146 210.472,205.285 C 203.059,197.767 198.947,192.738 193.861,184.978 C 183.987,169.943 178.128,154.759 175.32,136.894 C 174.106,129.179 174.157,109.601 175.368,100.52 C 177.69,83.286 182.725,63.32 189.36,44.965 L 191.053,40.229 L 189.989,39.936 C 189.408,39.789 187.76,39.738 186.309,39.837 L 183.744,39.984 L 181.563,46.33 C 167.714,87.582 165.197,123.169 174.058,153.729 C 181.659,180.047 199.867,203.335 227.712,222.271 C 234.441,226.861 243.929,232.674 247.081,234.088 C 249.353,235.162 249.257,235.112 249.257,234.576 Z M 226.014,229.84 C 222.72,228.621 220.784,228.181 219.235,228.279 L 217.056,228.426 L 221.414,229.989 C 224.032,230.914 226.739,231.549 228.195,231.549 L 230.614,231.549 L 226.014,229.84 Z M 211.486,224.226 C 209.115,223.103 207.806,222.813 205.966,222.909 L 203.544,223.053 L 206.643,224.373 C 208.675,225.202 210.662,225.69 212.211,225.69 L 214.635,225.69 L 211.486,224.226 Z M 198.413,218.175 C 195.848,216.807 194.731,216.514 192.36,216.514 L 189.456,216.562 L 192.843,218.175 C 195.461,219.445 196.864,219.834 198.899,219.834 L 201.56,219.834 L 198.413,218.175 Z M 187.76,212.853 C 187.76,212.757 186.357,211.826 184.616,210.85 C 181.856,209.287 181.128,209.095 178.658,209.239 L 175.901,209.389 L 179.045,211.191 C 181.611,212.658 182.675,212.999 185.003,212.999 C 186.501,213.045 187.76,212.951 187.76,212.853 Z M 175.416,205.335 C 175.125,205.09 173.816,204.114 172.41,203.09 C 170.037,201.38 169.749,201.282 166.602,201.428 L 163.309,201.575 L 166.453,203.623 C 169.312,205.479 169.89,205.674 172.749,205.674 C 174.442,205.722 175.653,205.53 175.416,205.335 Z M 161.37,194.74 C 158.997,192.591 158.901,192.54 155.464,192.54 C 153.527,192.54 151.927,192.639 151.927,192.738 C 151.927,192.834 153.042,193.863 154.399,194.935 C 156.821,196.842 157.01,196.938 160.354,196.938 L 163.792,196.887 L 161.37,194.74 Z M 149.026,183.023 L 145.925,179.855 L 141.807,179.855 L 137.693,179.855 L 140.791,183.023 L 143.89,186.199 L 148.007,186.199 L 152.122,186.199 L 149.026,183.023 Z M 138.077,169.743 C 137.642,168.961 136.239,166.913 135.077,165.105 L 132.898,161.785 L 128.151,161.785 C 125.487,161.785 123.359,161.935 123.359,162.079 C 123.359,162.273 124.81,164.372 126.554,166.719 L 129.746,171.057 L 134.346,171.057 L 138.951,171.057 L 138.077,169.743 Z M 126.266,149.241 C 126.266,148.996 125.055,145.87 123.602,142.26 L 120.938,135.67 L 115.13,135.521 C 111.935,135.476 109.316,135.476 109.316,135.62 C 109.316,136.009 114.498,147.436 115.175,148.51 C 115.804,149.484 116.242,149.582 121.036,149.582 C 123.943,149.58 126.266,149.436 126.266,149.241 Z M 116.098,117.459 C 116.098,117.262 115.663,114.678 115.132,111.747 C 114.599,108.769 113.775,103.208 113.29,99.299 L 112.418,92.222 L 105.543,92.078 L 98.665,91.928 L 98.665,93.099 C 98.665,95.395 101.473,109.993 103.071,116.046 L 103.556,117.851 L 109.802,117.851 C 113.287,117.849 116.098,117.654 116.098,117.459 Z M 111.255,54.872 L 111.255,38.229 L 103.652,38.376 L 96.004,38.52 L 96.1,54.336 C 96.148,63.075 96.295,70.445 96.439,70.837 C 96.633,71.325 98.375,71.469 103.991,71.469 L 111.255,71.469 L 111.255,54.872 Z" fill="#000000" stroke-width="0.027" fill-rule="nonzero" stroke-linejoin="miter" marker-start="none" marker-end="none"/>
   <text xml:space="preserve" transform="translate(205.606 43.57) scale(1 -1)" kerning="auto" stroke-width="0.44" stroke-linecap="round" stroke-linejoin="round" fill="#000000"><tspan x="0" y="0" letter-spacing="-0.09em" font-size="145.082">Н</tspan><tspan x="98.697" y="0" letter-spacing="-0.06em" font-size="30.899">орд</tspan></text>
  </g>
 </g>
</svg>
